<svg xmlns="http://www.w3.org/2000/svg" width="180" height="34" viewBox="0 0 180 34" fill="none">
  <path d="M23.628 21.5001L12.8391 0H0V33.2678H9.35565V12.019L20.6113 33.189H26.6448L37.9014 12.018V33.2678H47.257V0H34.4169L23.628 21.5001Z" fill="#F8ECDC"/>
  <path d="M132.107 10.5496L131.191 6.5931H123.103V33.2668H132.459V22.823C132.459 18.1223 135.56 14.3135 140.857 14.3135C142.95 14.3135 143.998 14.6357 143.998 14.6357L144.051 6.222C138.797 5.58054 135.089 6.59111 132.108 10.5476L132.107 10.5496Z" fill="#F8ECDC"/>
  <path d="M119.96 6.5931H108.743L100.538 15.3151H98.7V0H89.3444V33.2678H98.7V21.4942H100.589L109.883 33.2678H121.036L108.872 18.0714L119.96 6.5931Z" fill="#F8ECDC"/>
  <path d="M162.782 5.87284C151.911 5.87284 145.566 10.6603 145.566 19.9309C145.566 29.2016 151.911 33.989 162.782 33.989C173.654 33.989 179.999 29.2016 179.999 19.9309C179.999 10.6603 173.654 5.87284 162.782 5.87284ZM162.782 27.1156C157.959 27.1156 155.287 24.3144 155.287 19.9309C155.287 15.5475 157.959 12.7463 162.782 12.7463C167.605 12.7463 170.277 15.5475 170.277 19.9309C170.277 24.3144 167.605 27.1156 162.782 27.1156Z" fill="#F8ECDC"/>
  <path d="M74.9803 10.5496C73.7275 8.1703 69.5768 5.87284 64.8637 5.87284C56.5139 5.87284 50.6538 12.2584 50.6538 19.9429C50.6538 28.9502 56.39 34.001 64.399 34.001C69.7683 34.001 73.3565 31.6557 74.9803 29.3362L75.8179 33.2688H83.9852V6.60607H75.8189L74.9813 10.5506L74.9803 10.5496ZM68.0054 27.1276C63.1824 27.1276 60.5729 23.8624 60.5719 19.9429C60.5719 16.0194 63.1824 12.7463 68.0054 12.7463C72.8284 12.7463 75.2192 15.9785 75.2192 19.9429C75.2192 23.9073 72.8284 27.1276 68.0054 27.1276Z" fill="#F8ECDC"/>
</svg>