<svg width="1440" height="84" viewBox="0 0 1440 84" fill="none" xmlns="http://www.w3.org/2000/svg">
<rect width="1440" height="84" fill="#008228"/>
<path d="M63.628 46.5001L52.8391 25H40V58.2678H49.3556V37.019L60.6113 58.189H66.6448L77.9014 37.018V58.2678H87.257V25H74.4169L63.628 46.5001Z" fill="#F8ECDC"/>
<path d="M172.107 35.5496L171.191 31.5931H163.103V58.2668H172.459V47.823C172.459 43.1223 175.56 39.3135 180.857 39.3135C182.95 39.3135 183.998 39.6357 183.998 39.6357L184.051 31.222C178.797 30.5806 175.089 31.5911 172.108 35.5476L172.107 35.5496Z" fill="#F8ECDC"/>
<path d="M159.96 31.5931H148.743L140.538 40.3151H138.7V25H129.344V58.2678H138.7V46.4942H140.589L149.883 58.2678H161.036L148.872 43.0714L159.96 31.5931Z" fill="#F8ECDC"/>
<path d="M202.782 30.8728C191.911 30.8728 185.566 35.6603 185.566 44.9309C185.566 54.2016 191.911 58.989 202.782 58.989C213.654 58.989 219.999 54.2016 219.999 44.9309C219.999 35.6603 213.654 30.8728 202.782 30.8728ZM202.782 52.1156C197.959 52.1156 195.287 49.3144 195.287 44.9309C195.287 40.5475 197.959 37.7463 202.782 37.7463C207.605 37.7463 210.277 40.5475 210.277 44.9309C210.277 49.3144 207.605 52.1156 202.782 52.1156Z" fill="#F8ECDC"/>
<path d="M114.98 35.5496C113.727 33.1703 109.577 30.8728 104.864 30.8728C96.5139 30.8728 90.6538 37.2584 90.6538 44.9429C90.6538 53.9502 96.39 59.001 104.399 59.001C109.768 59.001 113.357 56.6556 114.98 54.3362L115.818 58.2688H123.985V31.6061H115.819L114.981 35.5506L114.98 35.5496ZM108.005 52.1276C103.182 52.1276 100.573 48.8624 100.572 44.9429C100.572 41.0194 103.182 37.7463 108.005 37.7463C112.828 37.7463 115.219 40.9785 115.219 44.9429C115.219 48.9073 112.828 52.1276 108.005 52.1276Z" fill="#F8ECDC"/>
<path d="M428 30.5C428 27.1863 430.686 24.5 434 24.5H526C529.314 24.5 532 27.1863 532 30.5V53.5C532 56.8137 529.314 59.5 526 59.5H434C430.686 59.5 428 56.8137 428 53.5V30.5Z" fill="#008228"/>
<path d="M456.72 41.1V36.3H458V47.5H456.72V42.3H450.8V47.5H449.52V36.3H450.8V41.1H456.72ZM464.252 47.66C463.505 47.66 462.817 47.484 462.188 47.132C461.569 46.7693 461.073 46.2787 460.7 45.66C460.337 45.0307 460.156 44.3373 460.156 43.58C460.156 42.8227 460.337 42.1347 460.7 41.516C461.073 40.8867 461.569 40.396 462.188 40.044C462.817 39.6813 463.505 39.5 464.252 39.5C464.998 39.5 465.681 39.6813 466.3 40.044C466.929 40.396 467.425 40.8867 467.788 41.516C468.161 42.1347 468.348 42.8227 468.348 43.58C468.348 44.3373 468.161 45.0307 467.788 45.66C467.425 46.2787 466.929 46.7693 466.3 47.132C465.681 47.484 464.998 47.66 464.252 47.66ZM464.252 46.54C464.774 46.54 465.249 46.412 465.676 46.156C466.113 45.8893 466.46 45.532 466.716 45.084C466.972 44.636 467.1 44.1347 467.1 43.58C467.1 43.0253 466.972 42.524 466.716 42.076C466.46 41.628 466.113 41.276 465.676 41.02C465.249 40.7533 464.774 40.62 464.252 40.62C463.729 40.62 463.249 40.7533 462.812 41.02C462.385 41.276 462.044 41.628 461.788 42.076C461.532 42.524 461.404 43.0253 461.404 43.58C461.404 44.1347 461.532 44.636 461.788 45.084C462.044 45.532 462.385 45.8893 462.812 46.156C463.249 46.412 463.729 46.54 464.252 46.54ZM475.064 43.324C475.491 43.4733 475.822 43.7187 476.056 44.06C476.291 44.4013 476.408 44.8013 476.408 45.26C476.408 45.9213 476.158 46.46 475.656 46.876C475.155 47.292 474.478 47.5 473.624 47.5H470.184V39.66H473.384C474.195 39.66 474.835 39.852 475.304 40.236C475.774 40.62 476.008 41.1213 476.008 41.74C476.008 42.06 475.918 42.364 475.736 42.652C475.566 42.94 475.342 43.164 475.064 43.324ZM471.384 40.78V42.876H473.336C473.795 42.876 474.147 42.78 474.392 42.588C474.638 42.3853 474.76 42.1293 474.76 41.82C474.76 41.5213 474.638 41.276 474.392 41.084C474.158 40.8813 473.822 40.78 473.384 40.78H471.384ZM473.624 46.38C474.104 46.38 474.478 46.2733 474.744 46.06C475.022 45.8467 475.16 45.5533 475.16 45.18C475.16 44.796 475.022 44.4973 474.744 44.284C474.467 44.0707 474.078 43.964 473.576 43.964H471.384V46.38H473.624ZM481.783 47.66C481.036 47.66 480.348 47.484 479.719 47.132C479.1 46.7693 478.604 46.2787 478.231 45.66C477.868 45.0307 477.687 44.3373 477.687 43.58C477.687 42.8227 477.868 42.1347 478.231 41.516C478.604 40.8867 479.1 40.396 479.719 40.044C480.348 39.6813 481.036 39.5 481.783 39.5C482.53 39.5 483.212 39.6813 483.831 40.044C484.46 40.396 484.956 40.8867 485.319 41.516C485.692 42.1347 485.879 42.8227 485.879 43.58C485.879 44.3373 485.692 45.0307 485.319 45.66C484.956 46.2787 484.46 46.7693 483.831 47.132C483.212 47.484 482.53 47.66 481.783 47.66ZM481.783 46.54C482.306 46.54 482.78 46.412 483.207 46.156C483.644 45.8893 483.991 45.532 484.247 45.084C484.503 44.636 484.631 44.1347 484.631 43.58C484.631 43.0253 484.503 42.524 484.247 42.076C483.991 41.628 483.644 41.276 483.207 41.02C482.78 40.7533 482.306 40.62 481.783 40.62C481.26 40.62 480.78 40.7533 480.343 41.02C479.916 41.276 479.575 41.628 479.319 42.076C479.063 42.524 478.935 43.0253 478.935 43.58C478.935 44.1347 479.063 44.636 479.319 45.084C479.575 45.532 479.916 45.8893 480.343 46.156C480.78 46.412 481.26 46.54 481.783 46.54ZM491.172 47.66C490.446 47.66 489.774 47.484 489.156 47.132C488.548 46.7693 488.062 46.2787 487.7 45.66C487.337 45.0307 487.156 44.3373 487.156 43.58C487.156 42.8227 487.337 42.1347 487.7 41.516C488.062 40.8867 488.548 40.396 489.156 40.044C489.774 39.6813 490.446 39.5 491.172 39.5C492.025 39.5 492.793 39.7347 493.476 40.204C494.169 40.6733 494.654 41.3187 494.932 42.14H493.652C493.417 41.66 493.076 41.2867 492.628 41.02C492.18 40.7533 491.694 40.62 491.172 40.62C490.67 40.62 490.206 40.7533 489.78 41.02C489.353 41.276 489.017 41.628 488.772 42.076C488.526 42.524 488.404 43.0253 488.404 43.58C488.404 44.1347 488.526 44.636 488.772 45.084C489.017 45.532 489.353 45.8893 489.78 46.156C490.206 46.412 490.67 46.54 491.172 46.54C491.694 46.54 492.18 46.4067 492.628 46.14C493.076 45.8733 493.417 45.5 493.652 45.02H494.932C494.654 45.8413 494.169 46.4867 493.476 46.956C492.793 47.4253 492.025 47.66 491.172 47.66ZM499.33 47.5H498.13V40.78H495.41V39.66H502.05V40.78H499.33V47.5ZM504.603 45.564L509.323 39.66H510.283V47.5H509.083V41.596L504.363 47.5H503.403V39.66H504.603V45.564Z" fill="#F8ECDC"/>
<path d="M542 30.5C542 27.1863 544.686 24.5 548 24.5H713C716.314 24.5 719 27.1863 719 30.5V53.5C719 56.8137 716.314 59.5 713 59.5H548C544.686 59.5 542 56.8137 542 53.5V30.5Z" fill="#008228"/>
<path d="M566.16 41.724L571.44 47.5H569.744L564.8 42.076V47.5H563.52V36.3H564.8V41.5L569.504 36.3H571.072L566.16 41.724ZM578.411 39.66H579.611V47.5H578.411V46.3C578.08 46.716 577.664 47.0467 577.163 47.292C576.662 47.5373 576.118 47.66 575.531 47.66C574.816 47.66 574.15 47.484 573.531 47.132C572.912 46.7693 572.422 46.2787 572.059 45.66C571.696 45.0307 571.515 44.3373 571.515 43.58C571.515 42.8227 571.696 42.1347 572.059 41.516C572.422 40.8867 572.912 40.396 573.531 40.044C574.15 39.6813 574.816 39.5 575.531 39.5C576.118 39.5 576.662 39.6227 577.163 39.868C577.664 40.1133 578.08 40.444 578.411 40.86V39.66ZM575.627 46.54C576.15 46.54 576.63 46.412 577.067 46.156C577.504 45.8893 577.851 45.532 578.107 45.084C578.363 44.636 578.491 44.1347 578.491 43.58C578.491 43.0253 578.363 42.524 578.107 42.076C577.851 41.628 577.504 41.276 577.067 41.02C576.63 40.7533 576.15 40.62 575.627 40.62C575.104 40.62 574.624 40.7533 574.187 41.02C573.75 41.276 573.403 41.628 573.147 42.076C572.891 42.524 572.763 43.0253 572.763 43.58C572.763 44.1347 572.891 44.636 573.147 45.084C573.403 45.532 573.75 45.8893 574.187 46.156C574.624 46.412 575.104 46.54 575.627 46.54ZM586.093 39.5C586.807 39.5 587.474 39.6813 588.093 40.044C588.711 40.396 589.202 40.8867 589.565 41.516C589.927 42.1347 590.109 42.8227 590.109 43.58C590.109 44.3373 589.927 45.0307 589.565 45.66C589.202 46.2787 588.711 46.7693 588.093 47.132C587.474 47.484 586.807 47.66 586.093 47.66C585.506 47.66 584.962 47.5373 584.461 47.292C583.959 47.0467 583.543 46.716 583.213 46.3V50.7H582.013V39.66H583.213V40.86C583.543 40.444 583.959 40.1133 584.461 39.868C584.962 39.6227 585.506 39.5 586.093 39.5ZM586.013 46.54C586.535 46.54 587.01 46.412 587.437 46.156C587.874 45.8893 588.221 45.532 588.477 45.084C588.733 44.636 588.861 44.1347 588.861 43.58C588.861 43.0253 588.733 42.524 588.477 42.076C588.221 41.628 587.874 41.276 587.437 41.02C587.01 40.7533 586.535 40.62 586.013 40.62C585.49 40.62 585.005 40.7533 584.557 41.02C584.119 41.276 583.773 41.628 583.517 42.076C583.261 42.524 583.133 43.0253 583.133 43.58C583.133 44.1347 583.261 44.636 583.517 45.084C583.773 45.532 584.119 45.8893 584.557 46.156C585.005 46.412 585.49 46.54 586.013 46.54ZM594.674 47.5H593.474V40.78H590.754V39.66H597.394V40.78H594.674V47.5ZM604.927 39.66H606.127V47.5H604.927V46.3C604.596 46.716 604.18 47.0467 603.679 47.292C603.177 47.5373 602.633 47.66 602.047 47.66C601.332 47.66 600.665 47.484 600.047 47.132C599.428 46.7693 598.937 46.2787 598.575 45.66C598.212 45.0307 598.031 44.3373 598.031 43.58C598.031 42.8227 598.212 42.1347 598.575 41.516C598.937 40.8867 599.428 40.396 600.047 40.044C600.665 39.6813 601.332 39.5 602.047 39.5C602.633 39.5 603.177 39.6227 603.679 39.868C604.18 40.1133 604.596 40.444 604.927 40.86V39.66ZM602.143 46.54C602.665 46.54 603.145 46.412 603.583 46.156C604.02 45.8893 604.367 45.532 604.623 45.084C604.879 44.636 605.007 44.1347 605.007 43.58C605.007 43.0253 604.879 42.524 604.623 42.076C604.367 41.628 604.02 41.276 603.583 41.02C603.145 40.7533 602.665 40.62 602.143 40.62C601.62 40.62 601.14 40.7533 600.703 41.02C600.265 41.276 599.919 41.628 599.663 42.076C599.407 42.524 599.279 43.0253 599.279 43.58C599.279 44.1347 599.407 44.636 599.663 45.084C599.919 45.532 600.265 45.8893 600.703 46.156C601.14 46.412 601.62 46.54 602.143 46.54ZM614.181 39.66H619.461V47.5H618.261V40.78H615.301L614.997 44.78C614.847 46.6467 613.989 47.58 612.421 47.58H612.133V46.412H612.421C612.869 46.412 613.199 46.268 613.413 45.98C613.626 45.692 613.759 45.2067 613.812 44.524L614.181 39.66ZM625.392 47.66C624.646 47.66 623.958 47.484 623.328 47.132C622.71 46.7693 622.214 46.2787 621.84 45.66C621.478 45.0307 621.296 44.3373 621.296 43.58C621.296 42.8227 621.478 42.1347 621.84 41.516C622.214 40.8867 622.71 40.396 623.328 40.044C623.958 39.6813 624.646 39.5 625.392 39.5C626.139 39.5 626.822 39.6813 627.44 40.044C628.07 40.396 628.566 40.8867 628.928 41.516C629.302 42.1347 629.488 42.8227 629.488 43.58C629.488 44.3373 629.302 45.0307 628.928 45.66C628.566 46.2787 628.07 46.7693 627.44 47.132C626.822 47.484 626.139 47.66 625.392 47.66ZM625.392 46.54C625.915 46.54 626.39 46.412 626.816 46.156C627.254 45.8893 627.6 45.532 627.856 45.084C628.112 44.636 628.24 44.1347 628.24 43.58C628.24 43.0253 628.112 42.524 627.856 42.076C627.6 41.628 627.254 41.276 626.816 41.02C626.39 40.7533 625.915 40.62 625.392 40.62C624.87 40.62 624.39 40.7533 623.952 41.02C623.526 41.276 623.184 41.628 622.928 42.076C622.672 42.524 622.544 43.0253 622.544 43.58C622.544 44.1347 622.672 44.636 622.928 45.084C623.184 45.532 623.526 45.8893 623.952 46.156C624.39 46.412 624.87 46.54 625.392 46.54ZM637.165 39.644V47.5H635.965V44.572H634.541L632.125 47.5H630.685L633.165 44.524C632.536 44.4067 632.024 44.1293 631.629 43.692C631.245 43.2547 631.053 42.7267 631.053 42.108C631.053 41.6387 631.165 41.2173 631.389 40.844C631.624 40.4707 631.944 40.1773 632.349 39.964C632.765 39.7507 633.224 39.644 633.725 39.644H637.165ZM635.965 43.452V40.764H633.805C633.357 40.764 632.994 40.8867 632.717 41.132C632.44 41.3667 632.301 41.692 632.301 42.108C632.301 42.524 632.44 42.8547 632.717 43.1C632.994 43.3347 633.357 43.452 633.805 43.452H635.965ZM640.727 39.66H646.007V47.5H644.807V40.78H641.847L641.543 44.78C641.394 46.6467 640.535 47.58 638.967 47.58H638.679V46.412H638.967C639.415 46.412 639.746 46.268 639.959 45.98C640.173 45.692 640.306 45.2067 640.359 44.524L640.727 39.66ZM651.491 42.38C652.419 42.38 653.155 42.6147 653.699 43.084C654.243 43.5533 654.515 44.172 654.515 44.94C654.515 45.708 654.243 46.3267 653.699 46.796C653.155 47.2653 652.419 47.5 651.491 47.5H648.403V39.66H649.603V42.38H651.491ZM651.491 46.38C652.067 46.38 652.504 46.2627 652.803 46.028C653.112 45.7827 653.267 45.42 653.267 44.94C653.267 44.46 653.112 44.1027 652.803 43.868C652.504 43.6227 652.067 43.5 651.491 43.5H649.603V46.38H651.491ZM661.8 42.94V39.66H663V47.5H661.8V44.06H657.4V47.5H656.2V39.66H657.4V42.94H661.8ZM668.939 47.66C668.192 47.66 667.504 47.484 666.875 47.132C666.256 46.7693 665.76 46.2787 665.387 45.66C665.024 45.0307 664.843 44.3373 664.843 43.58C664.843 42.8227 665.024 42.1347 665.387 41.516C665.76 40.8867 666.256 40.396 666.875 40.044C667.504 39.6813 668.192 39.5 668.939 39.5C669.686 39.5 670.368 39.6813 670.987 40.044C671.616 40.396 672.112 40.8867 672.475 41.516C672.848 42.1347 673.035 42.8227 673.035 43.58C673.035 44.3373 672.848 45.0307 672.475 45.66C672.112 46.2787 671.616 46.7693 670.987 47.132C670.368 47.484 669.686 47.66 668.939 47.66ZM668.939 46.54C669.462 46.54 669.936 46.412 670.363 46.156C670.8 45.8893 671.147 45.532 671.403 45.084C671.659 44.636 671.787 44.1347 671.787 43.58C671.787 43.0253 671.659 42.524 671.403 42.076C671.147 41.628 670.8 41.276 670.363 41.02C669.936 40.7533 669.462 40.62 668.939 40.62C668.416 40.62 667.936 40.7533 667.499 41.02C667.072 41.276 666.731 41.628 666.475 42.076C666.219 42.524 666.091 43.0253 666.091 43.58C666.091 44.1347 666.219 44.636 666.475 45.084C666.731 45.532 667.072 45.8893 667.499 46.156C667.936 46.412 668.416 46.54 668.939 46.54ZM678.328 47.66C677.603 47.66 676.931 47.484 676.312 47.132C675.704 46.7693 675.219 46.2787 674.856 45.66C674.493 45.0307 674.312 44.3373 674.312 43.58C674.312 42.8227 674.493 42.1347 674.856 41.516C675.219 40.8867 675.704 40.396 676.312 40.044C676.931 39.6813 677.603 39.5 678.328 39.5C679.181 39.5 679.949 39.7347 680.632 40.204C681.325 40.6733 681.811 41.3187 682.088 42.14H680.808C680.573 41.66 680.232 41.2867 679.784 41.02C679.336 40.7533 678.851 40.62 678.328 40.62C677.827 40.62 677.363 40.7533 676.936 41.02C676.509 41.276 676.173 41.628 675.928 42.076C675.683 42.524 675.56 43.0253 675.56 43.58C675.56 44.1347 675.683 44.636 675.928 45.084C676.173 45.532 676.509 45.8893 676.936 46.156C677.363 46.412 677.827 46.54 678.328 46.54C678.851 46.54 679.336 46.4067 679.784 46.14C680.232 45.8733 680.573 45.5 680.808 45.02H682.088C681.811 45.8413 681.325 46.4867 680.632 46.956C679.949 47.4253 679.181 47.66 678.328 47.66ZM686.486 47.5H685.286V40.78H682.566V39.66H689.206V40.78H686.486V47.5ZM691.759 45.564L696.479 39.66H697.439V47.5H696.239V41.596L691.519 47.5H690.559V39.66H691.759V45.564Z" fill="#F8ECDC"/>
<path d="M729 30.5C729 27.1863 731.686 24.5 735 24.5H810C813.314 24.5 816 27.1863 816 30.5V53.5C816 56.8137 813.314 59.5 810 59.5H735C731.686 59.5 729 56.8137 729 53.5V30.5Z" fill="#008228"/>
<path d="M759.4 47.5H758.024L756.824 44.46H751.864L750.664 47.5H749.32L753.88 36.3H754.84L759.4 47.5ZM756.344 43.26L754.344 38.204L752.344 43.26H756.344ZM763.399 43.516L767.383 47.5H765.751L762.119 43.82V47.5H760.919V39.66H762.119V43.292L765.575 39.66H767.111L763.399 43.516ZM776.429 49.74H775.229V47.5H768.669V39.66H769.869V46.38H774.029V39.66H775.229V46.38H776.429V49.74ZM779.15 45.564L783.87 39.66H784.83V47.5H783.63V41.596L778.91 47.5H777.95V39.66H779.15V45.564ZM788.431 45.564L793.151 39.66H794.111V47.5H792.911V41.596L788.191 47.5H787.231V39.66H788.431V45.564Z" fill="#F8ECDC"/>
<path d="M826 30.5C826 27.1863 828.686 24.5 832 24.5H921C924.314 24.5 927 27.1863 927 30.5V53.5C927 56.8137 924.314 59.5 921 59.5H832C828.686 59.5 826 56.8137 826 53.5V30.5Z" fill="#008228"/>
<path d="M850.16 41.724L855.44 47.5H853.744L848.8 42.076V47.5H847.52V36.3H848.8V41.5L853.504 36.3H855.072L850.16 41.724ZM862.411 39.66H863.611V47.5H862.411V46.3C862.08 46.716 861.664 47.0467 861.163 47.292C860.662 47.5373 860.118 47.66 859.531 47.66C858.816 47.66 858.15 47.484 857.531 47.132C856.912 46.7693 856.422 46.2787 856.059 45.66C855.696 45.0307 855.515 44.3373 855.515 43.58C855.515 42.8227 855.696 42.1347 856.059 41.516C856.422 40.8867 856.912 40.396 857.531 40.044C858.15 39.6813 858.816 39.5 859.531 39.5C860.118 39.5 860.662 39.6227 861.163 39.868C861.664 40.1133 862.08 40.444 862.411 40.86V39.66ZM859.627 46.54C860.15 46.54 860.63 46.412 861.067 46.156C861.504 45.8893 861.851 45.532 862.107 45.084C862.363 44.636 862.491 44.1347 862.491 43.58C862.491 43.0253 862.363 42.524 862.107 42.076C861.851 41.628 861.504 41.276 861.067 41.02C860.63 40.7533 860.15 40.62 859.627 40.62C859.104 40.62 858.624 40.7533 858.187 41.02C857.75 41.276 857.403 41.628 857.147 42.076C856.891 42.524 856.763 43.0253 856.763 43.58C856.763 44.1347 856.891 44.636 857.147 45.084C857.403 45.532 857.75 45.8893 858.187 46.156C858.624 46.412 859.104 46.54 859.627 46.54ZM868.893 47.5H867.693V40.78H864.973V39.66H871.613V40.78H868.893V47.5ZM879.145 39.66H880.345V47.5H879.145V46.3C878.815 46.716 878.399 47.0467 877.897 47.292C877.396 47.5373 876.852 47.66 876.265 47.66C875.551 47.66 874.884 47.484 874.265 47.132C873.647 46.7693 873.156 46.2787 872.793 45.66C872.431 45.0307 872.249 44.3373 872.249 43.58C872.249 42.8227 872.431 42.1347 872.793 41.516C873.156 40.8867 873.647 40.396 874.265 40.044C874.884 39.6813 875.551 39.5 876.265 39.5C876.852 39.5 877.396 39.6227 877.897 39.868C878.399 40.1133 878.815 40.444 879.145 40.86V39.66ZM876.361 46.54C876.884 46.54 877.364 46.412 877.801 46.156C878.239 45.8893 878.585 45.532 878.841 45.084C879.097 44.636 879.225 44.1347 879.225 43.58C879.225 43.0253 879.097 42.524 878.841 42.076C878.585 41.628 878.239 41.276 877.801 41.02C877.364 40.7533 876.884 40.62 876.361 40.62C875.839 40.62 875.359 40.7533 874.921 41.02C874.484 41.276 874.137 41.628 873.881 42.076C873.625 42.524 873.497 43.0253 873.497 43.58C873.497 44.1347 873.625 44.636 873.881 45.084C874.137 45.532 874.484 45.8893 874.921 46.156C875.359 46.412 875.839 46.54 876.361 46.54ZM883.915 39.66H889.195V47.5H887.995V40.78H885.035L884.731 44.78C884.582 46.6467 883.723 47.58 882.155 47.58H881.867V46.412H882.155C882.603 46.412 882.934 46.268 883.147 45.98C883.36 45.692 883.494 45.2067 883.547 44.524L883.915 39.66ZM895.127 47.66C894.38 47.66 893.692 47.484 893.063 47.132C892.444 46.7693 891.948 46.2787 891.575 45.66C891.212 45.0307 891.031 44.3373 891.031 43.58C891.031 42.8227 891.212 42.1347 891.575 41.516C891.948 40.8867 892.444 40.396 893.063 40.044C893.692 39.6813 894.38 39.5 895.127 39.5C895.873 39.5 896.556 39.6813 897.175 40.044C897.804 40.396 898.3 40.8867 898.663 41.516C899.036 42.1347 899.223 42.8227 899.223 43.58C899.223 44.3373 899.036 45.0307 898.663 45.66C898.3 46.2787 897.804 46.7693 897.175 47.132C896.556 47.484 895.873 47.66 895.127 47.66ZM895.127 46.54C895.649 46.54 896.124 46.412 896.551 46.156C896.988 45.8893 897.335 45.532 897.591 45.084C897.847 44.636 897.975 44.1347 897.975 43.58C897.975 43.0253 897.847 42.524 897.591 42.076C897.335 41.628 896.988 41.276 896.551 41.02C896.124 40.7533 895.649 40.62 895.127 40.62C894.604 40.62 894.124 40.7533 893.687 41.02C893.26 41.276 892.919 41.628 892.663 42.076C892.407 42.524 892.279 43.0253 892.279 43.58C892.279 44.1347 892.407 44.636 892.663 45.084C892.919 45.532 893.26 45.8893 893.687 46.156C894.124 46.412 894.604 46.54 895.127 46.54ZM902.259 47.5H901.059V39.66H906.019V40.78H902.259V47.5Z" fill="#F8ECDC"/>
<path d="M937 30.5C937 27.1863 939.686 24.5 943 24.5H1049C1052.31 24.5 1055 27.1863 1055 30.5V53.5C1055 56.8137 1052.31 59.5 1049 59.5H943C939.686 59.5 937 56.8137 937 53.5V30.5Z" fill="#008228"/>
<path d="M969.16 36.3L970.52 47.5H969.24L968.28 39.244L964.6 47.5H963.96L960.248 39.196L959.288 47.5H958.04L959.4 36.3H960.296L964.296 45.276L968.296 36.3H969.16ZM979.099 39.66H980.299V47.5H979.099V46.3C978.768 46.716 978.352 47.0467 977.851 47.292C977.349 47.5373 976.805 47.66 976.219 47.66C975.504 47.66 974.837 47.484 974.219 47.132C973.6 46.7693 973.109 46.2787 972.747 45.66C972.384 45.0307 972.203 44.3373 972.203 43.58C972.203 42.8227 972.384 42.1347 972.747 41.516C973.109 40.8867 973.6 40.396 974.219 40.044C974.837 39.6813 975.504 39.5 976.219 39.5C976.805 39.5 977.349 39.6227 977.851 39.868C978.352 40.1133 978.768 40.444 979.099 40.86V39.66ZM976.315 46.54C976.837 46.54 977.317 46.412 977.755 46.156C978.192 45.8893 978.539 45.532 978.795 45.084C979.051 44.636 979.179 44.1347 979.179 43.58C979.179 43.0253 979.051 42.524 978.795 42.076C978.539 41.628 978.192 41.276 977.755 41.02C977.317 40.7533 976.837 40.62 976.315 40.62C975.792 40.62 975.312 40.7533 974.875 41.02C974.437 41.276 974.091 41.628 973.835 42.076C973.579 42.524 973.451 43.0253 973.451 43.58C973.451 44.1347 973.579 44.636 973.835 45.084C974.091 45.532 974.437 45.8893 974.875 46.156C975.312 46.412 975.792 46.54 976.315 46.54ZM983.9 47.5H982.7V39.66H987.66V40.78H983.9V47.5ZM995.192 39.66H996.392V47.5H995.192V46.3C994.862 46.716 994.446 47.0467 993.944 47.292C993.443 47.5373 992.899 47.66 992.312 47.66C991.598 47.66 990.931 47.484 990.312 47.132C989.694 46.7693 989.203 46.2787 988.84 45.66C988.478 45.0307 988.296 44.3373 988.296 43.58C988.296 42.8227 988.478 42.1347 988.84 41.516C989.203 40.8867 989.694 40.396 990.312 40.044C990.931 39.6813 991.598 39.5 992.312 39.5C992.899 39.5 993.443 39.6227 993.944 39.868C994.446 40.1133 994.862 40.444 995.192 40.86V39.66ZM992.408 46.54C992.931 46.54 993.411 46.412 993.848 46.156C994.286 45.8893 994.632 45.532 994.888 45.084C995.144 44.636 995.272 44.1347 995.272 43.58C995.272 43.0253 995.144 42.524 994.888 42.076C994.632 41.628 994.286 41.276 993.848 41.02C993.411 40.7533 992.931 40.62 992.408 40.62C991.886 40.62 991.406 40.7533 990.968 41.02C990.531 41.276 990.184 41.628 989.928 42.076C989.672 42.524 989.544 43.0253 989.544 43.58C989.544 44.1347 989.672 44.636 989.928 45.084C990.184 45.532 990.531 45.8893 990.968 46.156C991.406 46.412 991.886 46.54 992.408 46.54ZM1002.65 43.42C1003.1 43.5693 1003.46 43.82 1003.72 44.172C1003.99 44.5133 1004.12 44.9027 1004.12 45.34C1004.12 45.788 1003.99 46.188 1003.72 46.54C1003.47 46.892 1003.11 47.1693 1002.65 47.372C1002.2 47.564 1001.7 47.66 1001.15 47.66C1000.28 47.66 999.562 47.4413 998.986 47.004C998.42 46.556 998.116 45.9747 998.074 45.26H999.274C999.327 45.644 999.514 45.9533 999.834 46.188C1000.16 46.4227 1000.6 46.54 1001.15 46.54C1001.65 46.54 1002.06 46.428 1002.38 46.204C1002.71 45.98 1002.87 45.6653 1002.87 45.26C1002.87 44.8867 1002.73 44.588 1002.44 44.364C1002.15 44.1293 1001.71 44.012 1001.1 44.012H1000.2V42.924H1001.11C1001.59 42.924 1001.97 42.8173 1002.25 42.604C1002.53 42.3907 1002.67 42.108 1002.67 41.756C1002.67 41.4147 1002.53 41.1427 1002.25 40.94C1001.97 40.7267 1001.6 40.62 1001.15 40.62C1000.64 40.62 1000.24 40.732 999.946 40.956C999.647 41.18 999.476 41.468 999.434 41.82H998.234C998.319 41.1373 998.628 40.5827 999.162 40.156C999.695 39.7187 1000.36 39.5 1001.15 39.5C1001.65 39.5 1002.11 39.596 1002.54 39.788C1002.96 39.9693 1003.3 40.2253 1003.55 40.556C1003.79 40.8867 1003.91 41.2653 1003.91 41.692C1003.91 42.0867 1003.8 42.4333 1003.58 42.732C1003.36 43.0307 1003.06 43.26 1002.65 43.42ZM1007.24 45.564L1011.96 39.66H1012.92V47.5H1011.72V41.596L1007 47.5H1006.04V39.66H1007.24V45.564ZM1020.93 42.94V39.66H1022.12V47.5H1020.93V44.06H1016.53V47.5H1015.33V39.66H1016.53V42.94H1020.93ZM1027.42 42.38C1028.35 42.38 1029.09 42.6147 1029.63 43.084C1030.18 43.5533 1030.45 44.172 1030.45 44.94C1030.45 45.708 1030.18 46.3267 1029.63 46.796C1029.09 47.2653 1028.35 47.5 1027.42 47.5H1024.53V39.66H1025.73V42.38H1027.42ZM1031.65 47.5V39.66H1032.85V47.5H1031.65ZM1027.42 46.38C1028 46.38 1028.44 46.2627 1028.74 46.028C1029.05 45.7827 1029.2 45.42 1029.2 44.94C1029.2 44.46 1029.05 44.1027 1028.74 43.868C1028.44 43.6227 1028 43.5 1027.42 43.5H1025.73V46.38H1027.42Z" fill="#F8ECDC"/>
<path d="M1065 30.5C1065 27.1863 1067.69 24.5 1071 24.5H1169C1172.31 24.5 1175 27.1863 1175 30.5V53.5C1175 56.8137 1172.31 59.5 1169 59.5H1071C1067.69 59.5 1065 56.8137 1065 53.5V30.5Z" fill="#008228"/>
<path d="M1089.16 41.724L1094.44 47.5H1092.74L1087.8 42.076V47.5H1086.52V36.3H1087.8V41.5L1092.5 36.3H1094.07L1089.16 41.724ZM1098.61 47.66C1097.86 47.66 1097.18 47.484 1096.55 47.132C1095.93 46.7693 1095.43 46.2787 1095.06 45.66C1094.7 45.0307 1094.52 44.3373 1094.52 43.58C1094.52 42.8227 1094.7 42.1347 1095.06 41.516C1095.43 40.8867 1095.93 40.396 1096.55 40.044C1097.18 39.6813 1097.86 39.5 1098.61 39.5C1099.36 39.5 1100.04 39.6813 1100.66 40.044C1101.29 40.396 1101.78 40.8867 1102.15 41.516C1102.52 42.1347 1102.71 42.8227 1102.71 43.58C1102.71 44.3373 1102.52 45.0307 1102.15 45.66C1101.78 46.2787 1101.29 46.7693 1100.66 47.132C1100.04 47.484 1099.36 47.66 1098.61 47.66ZM1098.61 46.54C1099.13 46.54 1099.61 46.412 1100.04 46.156C1100.47 45.8893 1100.82 45.532 1101.08 45.084C1101.33 44.636 1101.46 44.1347 1101.46 43.58C1101.46 43.0253 1101.33 42.524 1101.08 42.076C1100.82 41.628 1100.47 41.276 1100.04 41.02C1099.61 40.7533 1099.13 40.62 1098.61 40.62C1098.09 40.62 1097.61 40.7533 1097.17 41.02C1096.74 41.276 1096.4 41.628 1096.15 42.076C1095.89 42.524 1095.76 43.0253 1095.76 43.58C1095.76 44.1347 1095.89 44.636 1096.15 45.084C1096.4 45.532 1096.74 45.8893 1097.17 46.156C1097.61 46.412 1098.09 46.54 1098.61 46.54ZM1110.14 42.94V39.66H1111.34V47.5H1110.14V44.06H1105.74V47.5H1104.54V39.66H1105.74V42.94H1110.14ZM1116.63 47.5H1115.43V40.78H1112.71V39.66H1119.35V40.78H1116.63V47.5ZM1126.88 39.66H1128.08V47.5H1126.88V46.3C1126.55 46.716 1126.13 47.0467 1125.63 47.292C1125.13 47.5373 1124.59 47.66 1124 47.66C1123.29 47.66 1122.62 47.484 1122 47.132C1121.38 46.7693 1120.89 46.2787 1120.53 45.66C1120.17 45.0307 1119.98 44.3373 1119.98 43.58C1119.98 42.8227 1120.17 42.1347 1120.53 41.516C1120.89 40.8867 1121.38 40.396 1122 40.044C1122.62 39.6813 1123.29 39.5 1124 39.5C1124.59 39.5 1125.13 39.6227 1125.63 39.868C1126.13 40.1133 1126.55 40.444 1126.88 40.86V39.66ZM1124.1 46.54C1124.62 46.54 1125.1 46.412 1125.54 46.156C1125.97 45.8893 1126.32 45.532 1126.58 45.084C1126.83 44.636 1126.96 44.1347 1126.96 43.58C1126.96 43.0253 1126.83 42.524 1126.58 42.076C1126.32 41.628 1125.97 41.276 1125.54 41.02C1125.1 40.7533 1124.62 40.62 1124.1 40.62C1123.57 40.62 1123.09 40.7533 1122.66 41.02C1122.22 41.276 1121.87 41.628 1121.62 42.076C1121.36 42.524 1121.23 43.0253 1121.23 43.58C1121.23 44.1347 1121.36 44.636 1121.62 45.084C1121.87 45.532 1122.22 45.8893 1122.66 46.156C1123.09 46.412 1123.57 46.54 1124.1 46.54ZM1132.96 43.516L1136.95 47.5H1135.31L1131.68 43.82V47.5H1130.48V39.66H1131.68V43.292L1135.14 39.66H1136.67L1132.96 43.516ZM1141.11 47.5H1139.91V40.78H1137.19V39.66H1143.83V40.78H1141.11V47.5ZM1148.08 42.38C1149.01 42.38 1149.74 42.6147 1150.29 43.084C1150.83 43.5533 1151.1 44.172 1151.1 44.94C1151.1 45.708 1150.83 46.3267 1150.29 46.796C1149.74 47.2653 1149.01 47.5 1148.08 47.5H1145.18V39.66H1146.38V42.38H1148.08ZM1152.3 47.5V39.66H1153.5V47.5H1152.3ZM1148.08 46.38C1148.66 46.38 1149.09 46.2627 1149.39 46.028C1149.7 45.7827 1149.86 45.42 1149.86 44.94C1149.86 44.46 1149.7 44.1027 1149.39 43.868C1149.09 43.6227 1148.66 43.5 1148.08 43.5H1146.38V46.38H1148.08Z" fill="#F8ECDC"/>
<path d="M1185 30.5C1185 27.1863 1187.69 24.5 1191 24.5H1338C1341.31 24.5 1344 27.1863 1344 30.5V53.5C1344 56.8137 1341.31 59.5 1338 59.5H1191C1187.69 59.5 1185 56.8137 1185 53.5V30.5Z" fill="#008228"/>
<path d="M1209.8 36.3C1210.51 36.3 1211.14 36.4387 1211.69 36.716C1212.24 36.9933 1212.67 37.3773 1212.97 37.868C1213.28 38.348 1213.43 38.892 1213.43 39.5C1213.43 40.108 1213.28 40.6573 1212.97 41.148C1212.67 41.628 1212.24 42.0067 1211.69 42.284C1211.14 42.5613 1210.51 42.7 1209.8 42.7H1207.8V47.5H1206.52V36.3H1209.8ZM1209.8 41.5C1210.5 41.5 1211.06 41.3187 1211.48 40.956C1211.9 40.5933 1212.1 40.108 1212.1 39.5C1212.1 38.892 1211.9 38.4067 1211.48 38.044C1211.06 37.6813 1210.5 37.5 1209.8 37.5H1207.8V41.5H1209.8ZM1221.21 39.66H1222.41V47.5H1221.21V46.3C1220.88 46.716 1220.46 47.0467 1219.96 47.292C1219.46 47.5373 1218.91 47.66 1218.33 47.66C1217.61 47.66 1216.95 47.484 1216.33 47.132C1215.71 46.7693 1215.22 46.2787 1214.86 45.66C1214.49 45.0307 1214.31 44.3373 1214.31 43.58C1214.31 42.8227 1214.49 42.1347 1214.86 41.516C1215.22 40.8867 1215.71 40.396 1216.33 40.044C1216.95 39.6813 1217.61 39.5 1218.33 39.5C1218.91 39.5 1219.46 39.6227 1219.96 39.868C1220.46 40.1133 1220.88 40.444 1221.21 40.86V39.66ZM1218.42 46.54C1218.95 46.54 1219.43 46.412 1219.86 46.156C1220.3 45.8893 1220.65 45.532 1220.9 45.084C1221.16 44.636 1221.29 44.1347 1221.29 43.58C1221.29 43.0253 1221.16 42.524 1220.9 42.076C1220.65 41.628 1220.3 41.276 1219.86 41.02C1219.43 40.7533 1218.95 40.62 1218.42 40.62C1217.9 40.62 1217.42 40.7533 1216.98 41.02C1216.55 41.276 1216.2 41.628 1215.94 42.076C1215.69 42.524 1215.56 43.0253 1215.56 43.58C1215.56 44.1347 1215.69 44.636 1215.94 45.084C1216.2 45.532 1216.55 45.8893 1216.98 46.156C1217.42 46.412 1217.9 46.54 1218.42 46.54ZM1228.7 39.82C1229.39 39.82 1230.03 39.996 1230.6 40.348C1231.19 40.6893 1231.65 41.164 1231.99 41.772C1232.33 42.3693 1232.51 43.0253 1232.51 43.74C1232.51 44.4547 1232.32 45.116 1231.96 45.724C1231.61 46.3213 1231.13 46.796 1230.52 47.148C1229.91 47.4893 1229.25 47.66 1228.54 47.66C1227.81 47.66 1227.15 47.5 1226.54 47.18C1225.93 46.86 1225.43 46.3427 1225.05 45.628C1224.68 44.9027 1224.49 43.964 1224.49 42.812C1224.49 41.2227 1224.71 39.9427 1225.16 38.972C1225.62 38.0013 1226.27 37.34 1227.11 36.988C1227.63 36.7747 1228.11 36.6147 1228.57 36.508C1229.04 36.4013 1229.69 36.2787 1230.54 36.14C1231.06 36.0653 1231.49 35.996 1231.82 35.932V37.132C1231.28 37.228 1230.85 37.3027 1230.51 37.356C1229.75 37.4733 1229.16 37.58 1228.73 37.676C1228.31 37.7613 1227.93 37.884 1227.59 38.044C1227.07 38.2787 1226.65 38.6627 1226.35 39.196C1226.04 39.7187 1225.85 40.3533 1225.79 41.1C1226.49 40.2467 1227.46 39.82 1228.7 39.82ZM1228.54 46.54C1229.03 46.54 1229.48 46.4173 1229.9 46.172C1230.31 45.916 1230.64 45.5747 1230.89 45.148C1231.13 44.7213 1231.26 44.252 1231.26 43.74C1231.26 43.228 1231.13 42.7587 1230.89 42.332C1230.64 41.9053 1230.31 41.5693 1229.9 41.324C1229.48 41.068 1229.03 40.94 1228.54 40.94C1228.05 40.94 1227.59 41.068 1227.18 41.324C1226.76 41.5693 1226.43 41.9053 1226.19 42.332C1225.94 42.7587 1225.82 43.228 1225.82 43.74C1225.82 44.252 1225.94 44.7213 1226.19 45.148C1226.43 45.5747 1226.76 45.916 1227.18 46.172C1227.59 46.4173 1228.05 46.54 1228.54 46.54ZM1237.8 47.66C1237.05 47.66 1236.36 47.484 1235.73 47.132C1235.12 46.7693 1234.62 46.2787 1234.25 45.66C1233.88 45.0307 1233.7 44.3373 1233.7 43.58C1233.7 42.8227 1233.88 42.1347 1234.25 41.516C1234.62 40.8867 1235.12 40.396 1235.73 40.044C1236.36 39.6813 1237.05 39.5 1237.8 39.5C1238.55 39.5 1239.23 39.6813 1239.85 40.044C1240.48 40.396 1240.97 40.8867 1241.33 41.516C1241.71 42.1347 1241.89 42.8227 1241.89 43.58C1241.89 44.3373 1241.71 45.0307 1241.33 45.66C1240.97 46.2787 1240.48 46.7693 1239.85 47.132C1239.23 47.484 1238.55 47.66 1237.8 47.66ZM1237.8 46.54C1238.32 46.54 1238.8 46.412 1239.22 46.156C1239.66 45.8893 1240.01 45.532 1240.26 45.084C1240.52 44.636 1240.65 44.1347 1240.65 43.58C1240.65 43.0253 1240.52 42.524 1240.26 42.076C1240.01 41.628 1239.66 41.276 1239.22 41.02C1238.8 40.7533 1238.32 40.62 1237.8 40.62C1237.28 40.62 1236.8 40.7533 1236.36 41.02C1235.93 41.276 1235.59 41.628 1235.33 42.076C1235.08 42.524 1234.95 43.0253 1234.95 43.58C1234.95 44.1347 1235.08 44.636 1235.33 45.084C1235.59 45.532 1235.93 45.8893 1236.36 46.156C1236.8 46.412 1237.28 46.54 1237.8 46.54ZM1246.46 47.5H1245.26V40.78H1242.54V39.66H1249.18V40.78H1246.46V47.5ZM1256.71 39.66H1257.91V47.5H1256.71V46.3C1256.38 46.716 1255.96 47.0467 1255.46 47.292C1254.96 47.5373 1254.41 47.66 1253.83 47.66C1253.11 47.66 1252.45 47.484 1251.83 47.132C1251.21 46.7693 1250.72 46.2787 1250.36 45.66C1249.99 45.0307 1249.81 44.3373 1249.81 43.58C1249.81 42.8227 1249.99 42.1347 1250.36 41.516C1250.72 40.8867 1251.21 40.396 1251.83 40.044C1252.45 39.6813 1253.11 39.5 1253.83 39.5C1254.41 39.5 1254.96 39.6227 1255.46 39.868C1255.96 40.1133 1256.38 40.444 1256.71 40.86V39.66ZM1253.92 46.54C1254.45 46.54 1254.93 46.412 1255.36 46.156C1255.8 45.8893 1256.15 45.532 1256.4 45.084C1256.66 44.636 1256.79 44.1347 1256.79 43.58C1256.79 43.0253 1256.66 42.524 1256.4 42.076C1256.15 41.628 1255.8 41.276 1255.36 41.02C1254.93 40.7533 1254.45 40.62 1253.92 40.62C1253.4 40.62 1252.92 40.7533 1252.48 41.02C1252.05 41.276 1251.7 41.628 1251.44 42.076C1251.19 42.524 1251.06 43.0253 1251.06 43.58C1251.06 44.1347 1251.19 44.636 1251.44 45.084C1251.7 45.532 1252.05 45.8893 1252.48 46.156C1252.92 46.412 1253.4 46.54 1253.92 46.54ZM1269.67 43.324C1270.1 43.4733 1270.43 43.7187 1270.67 44.06C1270.9 44.4013 1271.02 44.8013 1271.02 45.26C1271.02 45.9213 1270.77 46.46 1270.27 46.876C1269.76 47.292 1269.09 47.5 1268.23 47.5H1264.79V39.66H1267.99C1268.8 39.66 1269.44 39.852 1269.91 40.236C1270.38 40.62 1270.62 41.1213 1270.62 41.74C1270.62 42.06 1270.53 42.364 1270.35 42.652C1270.18 42.94 1269.95 43.164 1269.67 43.324ZM1265.99 40.78V42.876H1267.95C1268.4 42.876 1268.76 42.78 1269 42.588C1269.25 42.3853 1269.37 42.1293 1269.37 41.82C1269.37 41.5213 1269.25 41.276 1269 41.084C1268.77 40.8813 1268.43 40.78 1267.99 40.78H1265.99ZM1268.23 46.38C1268.71 46.38 1269.09 46.2733 1269.35 46.06C1269.63 45.8467 1269.77 45.5533 1269.77 45.18C1269.77 44.796 1269.63 44.4973 1269.35 44.284C1269.08 44.0707 1268.69 43.964 1268.19 43.964H1265.99V46.38H1268.23ZM1288.3 36.3L1289.66 47.5H1288.38L1287.42 39.244L1283.74 47.5H1283.1L1279.39 39.196L1278.43 47.5H1277.18L1278.54 36.3H1279.44L1283.44 45.276L1287.44 36.3H1288.3ZM1298.24 39.66H1299.44V47.5H1298.24V46.3C1297.91 46.716 1297.49 47.0467 1296.99 47.292C1296.49 47.5373 1295.95 47.66 1295.36 47.66C1294.64 47.66 1293.98 47.484 1293.36 47.132C1292.74 46.7693 1292.25 46.2787 1291.89 45.66C1291.52 45.0307 1291.34 44.3373 1291.34 43.58C1291.34 42.8227 1291.52 42.1347 1291.89 41.516C1292.25 40.8867 1292.74 40.396 1293.36 40.044C1293.98 39.6813 1294.64 39.5 1295.36 39.5C1295.95 39.5 1296.49 39.6227 1296.99 39.868C1297.49 40.1133 1297.91 40.444 1298.24 40.86V39.66ZM1295.46 46.54C1295.98 46.54 1296.46 46.412 1296.9 46.156C1297.33 45.8893 1297.68 45.532 1297.94 45.084C1298.19 44.636 1298.32 44.1347 1298.32 43.58C1298.32 43.0253 1298.19 42.524 1297.94 42.076C1297.68 41.628 1297.33 41.276 1296.9 41.02C1296.46 40.7533 1295.98 40.62 1295.46 40.62C1294.93 40.62 1294.45 40.7533 1294.02 41.02C1293.58 41.276 1293.23 41.628 1292.98 42.076C1292.72 42.524 1292.59 43.0253 1292.59 43.58C1292.59 44.1347 1292.72 44.636 1292.98 45.084C1293.23 45.532 1293.58 45.8893 1294.02 46.156C1294.45 46.412 1294.93 46.54 1295.46 46.54ZM1304.4 43.452L1308.38 47.5H1306.75L1303.12 43.756V47.5H1301.92V35.98H1303.12V43.228L1306.58 39.66H1308.11L1304.4 43.452ZM1313.99 39.58V40.7H1313.19C1312.76 40.7 1312.37 40.8013 1312.02 41.004C1311.67 41.196 1311.39 41.468 1311.17 41.82C1310.97 42.172 1310.87 42.572 1310.87 43.02V47.5H1309.67V39.66H1310.87V40.78C1311.19 40.3853 1311.56 40.0867 1311.97 39.884C1312.4 39.6813 1312.86 39.58 1313.35 39.58H1313.99ZM1318.74 47.66C1317.99 47.66 1317.3 47.484 1316.67 47.132C1316.05 46.7693 1315.56 46.2787 1315.18 45.66C1314.82 45.0307 1314.64 44.3373 1314.64 43.58C1314.64 42.8227 1314.82 42.1347 1315.18 41.516C1315.56 40.8867 1316.05 40.396 1316.67 40.044C1317.3 39.6813 1317.99 39.5 1318.74 39.5C1319.48 39.5 1320.17 39.6813 1320.78 40.044C1321.41 40.396 1321.91 40.8867 1322.27 41.516C1322.65 42.1347 1322.83 42.8227 1322.83 43.58C1322.83 44.3373 1322.65 45.0307 1322.27 45.66C1321.91 46.2787 1321.41 46.7693 1320.78 47.132C1320.17 47.484 1319.48 47.66 1318.74 47.66ZM1318.74 46.54C1319.26 46.54 1319.73 46.412 1320.16 46.156C1320.6 45.8893 1320.94 45.532 1321.2 45.084C1321.46 44.636 1321.58 44.1347 1321.58 43.58C1321.58 43.0253 1321.46 42.524 1321.2 42.076C1320.94 41.628 1320.6 41.276 1320.16 41.02C1319.73 40.7533 1319.26 40.62 1318.74 40.62C1318.21 40.62 1317.73 40.7533 1317.3 41.02C1316.87 41.276 1316.53 41.628 1316.27 42.076C1316.02 42.524 1315.89 43.0253 1315.89 43.58C1315.89 44.1347 1316.02 44.636 1316.27 45.084C1316.53 45.532 1316.87 45.8893 1317.3 46.156C1317.73 46.412 1318.21 46.54 1318.74 46.54Z" fill="#F8ECDC"/>
<rect x="1354.5" y="19.5" width="45" height="45" rx="11.5" stroke="#F5F5F5"/>
<g clip-path="url(#clip0_4906_41649)">
<mask id="mask0_4906_41649" style="mask-type:alpha" maskUnits="userSpaceOnUse" x="1364" y="32" width="26" height="20">
<path d="M1387.52 32H1366.48C1365.11 32 1364 33.1939 1364 34.6667V49.3333C1364 50.8061 1365.11 52 1366.48 52H1387.52C1388.89 52 1390 50.8061 1390 49.3333V34.6667C1390 33.1939 1388.89 32 1387.52 32Z" fill="white"/>
</mask>
<g mask="url(#mask0_4906_41649)">
<path d="M1387.52 32H1366.48C1365.11 32 1364 33.1939 1364 34.6667V49.3333C1364 50.8061 1365.11 52 1366.48 52H1387.52C1388.89 52 1390 50.8061 1390 49.3333V34.6667C1390 33.1939 1388.89 32 1387.52 32Z" fill="#0034A9"/>
<path fill-rule="evenodd" clip-rule="evenodd" d="M1364 45.3333H1390V52H1364V45.3333Z" fill="#D7280F"/>
<path fill-rule="evenodd" clip-rule="evenodd" d="M1364 32H1390V38.6667H1364V32Z" fill="white"/>
<path d="M1387.52 32.6667H1366.48C1365.45 32.6667 1364.62 33.5621 1364.62 34.6667V49.3333C1364.62 50.4379 1365.45 51.3333 1366.48 51.3333H1387.52C1388.55 51.3333 1389.38 50.4379 1389.38 49.3333V34.6667C1389.38 33.5621 1388.55 32.6667 1387.52 32.6667Z" stroke="black" stroke-opacity="0.1"/>
</g>
</g>
<defs>
<clipPath id="clip0_4906_41649">
<rect width="26" height="20" fill="white" transform="translate(1364 32)"/>
</clipPath>
</defs>
</svg>
