<svg width="254" height="44" viewBox="0 0 254 44" fill="none" xmlns="http://www.w3.org/2000/svg">
<path d="M0 14C0 6.26801 6.26801 0 14 0H240C247.732 0 254 6.26801 254 14V30C254 37.732 247.732 44 240 44H14C6.26801 44 0 37.732 0 30V14Z" fill="white"/>
<path d="M23.6 30.5H21.8V18.74H31.832V30.5H30.032V20.42H23.6V30.5ZM40.7446 30.74C39.6246 30.74 38.5926 30.476 37.6486 29.948C36.7206 29.404 35.9766 28.668 35.4166 27.74C34.8726 26.796 34.6006 25.756 34.6006 24.62C34.6006 23.484 34.8726 22.452 35.4166 21.524C35.9766 20.58 36.7206 19.844 37.6486 19.316C38.5926 18.772 39.6246 18.5 40.7446 18.5C41.8646 18.5 42.8886 18.772 43.8166 19.316C44.7606 19.844 45.5046 20.58 46.0486 21.524C46.6086 22.452 46.8886 23.484 46.8886 24.62C46.8886 25.756 46.6086 26.796 46.0486 27.74C45.5046 28.668 44.7606 29.404 43.8166 29.948C42.8886 30.476 41.8646 30.74 40.7446 30.74ZM40.7446 29.06C41.5286 29.06 42.2406 28.868 42.8806 28.484C43.5366 28.084 44.0566 27.548 44.4406 26.876C44.8246 26.204 45.0166 25.452 45.0166 24.62C45.0166 23.788 44.8246 23.036 44.4406 22.364C44.0566 21.692 43.5366 21.164 42.8806 20.78C42.2406 20.38 41.5286 20.18 40.7446 20.18C39.9606 20.18 39.2406 20.38 38.5846 20.78C37.9446 21.164 37.4326 21.692 37.0486 22.364C36.6646 23.036 36.4726 23.788 36.4726 24.62C36.4726 25.452 36.6646 26.204 37.0486 26.876C37.4326 27.548 37.9446 28.084 38.5846 28.484C39.2406 28.868 39.9606 29.06 40.7446 29.06ZM50.927 18.74H58.847V30.5H57.047V20.42H52.607L52.151 26.42C51.927 29.22 50.639 30.62 48.287 30.62H47.855V28.868H48.287C48.959 28.868 49.455 28.652 49.775 28.22C50.095 27.788 50.295 27.06 50.375 26.036L50.927 18.74ZM70.8406 23.66V18.74H72.6406V30.5H70.8406V25.34H64.2406V30.5H62.4406V18.74H64.2406V23.66H70.8406ZM80.5893 22.82C81.9813 22.82 83.0853 23.172 83.9013 23.876C84.7173 24.58 85.1253 25.508 85.1253 26.66C85.1253 27.812 84.7173 28.74 83.9013 29.444C83.0853 30.148 81.9813 30.5 80.5893 30.5H76.2453V18.74H78.0453V22.82H80.5893ZM86.9253 30.5V18.74H88.7253V30.5H86.9253ZM80.5893 28.82C81.4533 28.82 82.1093 28.644 82.5573 28.292C83.0213 27.924 83.2533 27.38 83.2533 26.66C83.2533 25.94 83.0213 25.404 82.5573 25.052C82.1093 24.684 81.4533 24.5 80.5893 24.5H78.0453V28.82H80.5893ZM94.1234 27.596L101.203 18.74H102.643V30.5H100.843V21.644L93.7634 30.5H92.3234V18.74H94.1234V27.596ZM97.5794 17.252C96.5074 17.252 95.6354 16.948 94.9634 16.34C94.2914 15.716 93.9234 14.916 93.8594 13.94H95.5874C95.6514 14.548 95.8594 15.012 96.2114 15.332C96.5794 15.636 97.0354 15.788 97.5794 15.788C98.1234 15.788 98.5714 15.636 98.9234 15.332C99.2914 15.012 99.5074 14.548 99.5714 13.94H101.299C101.235 14.916 100.867 15.716 100.195 16.34C99.5234 16.948 98.6514 17.252 97.5794 17.252ZM118.156 30.74C117.068 30.74 116.06 30.476 115.132 29.948C114.22 29.404 113.492 28.668 112.948 27.74C112.404 26.796 112.132 25.756 112.132 24.62C112.132 23.484 112.404 22.452 112.948 21.524C113.492 20.58 114.22 19.844 115.132 19.316C116.06 18.772 117.068 18.5 118.156 18.5C119.436 18.5 120.588 18.852 121.612 19.556C122.652 20.26 123.38 21.228 123.796 22.46H121.876C121.524 21.74 121.012 21.18 120.34 20.78C119.668 20.38 118.94 20.18 118.156 20.18C117.404 20.18 116.708 20.38 116.068 20.78C115.428 21.164 114.924 21.692 114.556 22.364C114.188 23.036 114.004 23.788 114.004 24.62C114.004 25.452 114.188 26.204 114.556 26.876C114.924 27.548 115.428 28.084 116.068 28.484C116.708 28.868 117.404 29.06 118.156 29.06C118.94 29.06 119.668 28.86 120.34 28.46C121.012 28.06 121.524 27.5 121.876 26.78H123.796C123.38 28.012 122.652 28.98 121.612 29.684C120.588 30.388 119.436 30.74 118.156 30.74ZM128.108 30.5H126.308V18.74H136.34V30.5H134.54V20.42H128.108V30.5ZM141.748 27.596L148.828 18.74H150.268V30.5H148.468V21.644L141.388 30.5H139.948V18.74H141.748V27.596ZM159.054 30.74C157.966 30.74 156.958 30.476 156.03 29.948C155.118 29.404 154.39 28.668 153.846 27.74C153.302 26.796 153.03 25.756 153.03 24.62C153.03 23.484 153.302 22.452 153.846 21.524C154.39 20.58 155.118 19.844 156.03 19.316C156.958 18.772 157.966 18.5 159.054 18.5C160.334 18.5 161.486 18.852 162.51 19.556C163.55 20.26 164.278 21.228 164.694 22.46H162.774C162.422 21.74 161.91 21.18 161.238 20.78C160.566 20.38 159.838 20.18 159.054 20.18C158.302 20.18 157.606 20.38 156.966 20.78C156.326 21.164 155.822 21.692 155.454 22.364C155.086 23.036 154.902 23.788 154.902 24.62C154.902 25.452 155.086 26.204 155.454 26.876C155.822 27.548 156.326 28.084 156.966 28.484C157.606 28.868 158.302 29.06 159.054 29.06C159.838 29.06 160.566 28.86 161.238 28.46C161.91 28.06 162.422 27.5 162.774 26.78H164.694C164.278 28.012 163.55 28.98 162.51 29.684C161.486 30.388 160.334 30.74 159.054 30.74ZM172.51 30.74C171.39 30.74 170.358 30.476 169.414 29.948C168.486 29.404 167.742 28.668 167.182 27.74C166.638 26.796 166.366 25.756 166.366 24.62C166.366 23.484 166.638 22.452 167.182 21.524C167.742 20.58 168.486 19.844 169.414 19.316C170.358 18.772 171.39 18.5 172.51 18.5C173.63 18.5 174.654 18.772 175.582 19.316C176.526 19.844 177.27 20.58 177.814 21.524C178.374 22.452 178.654 23.484 178.654 24.62C178.654 25.756 178.374 26.796 177.814 27.74C177.27 28.668 176.526 29.404 175.582 29.948C174.654 30.476 173.63 30.74 172.51 30.74ZM172.51 29.06C173.294 29.06 174.006 28.868 174.646 28.484C175.302 28.084 175.822 27.548 176.206 26.876C176.59 26.204 176.782 25.452 176.782 24.62C176.782 23.788 176.59 23.036 176.206 22.364C175.822 21.692 175.302 21.164 174.646 20.78C174.006 20.38 173.294 20.18 172.51 20.18C171.726 20.18 171.006 20.38 170.35 20.78C169.71 21.164 169.198 21.692 168.814 22.364C168.43 23.036 168.238 23.788 168.238 24.62C168.238 25.452 168.43 26.204 168.814 26.876C169.198 27.548 169.71 28.084 170.35 28.484C171.006 28.868 171.726 29.06 172.51 29.06ZM185.129 24.524L191.105 30.5H188.657L183.209 24.98V30.5H181.409V18.74H183.209V24.188L188.393 18.74H190.697L185.129 24.524Z" fill="#00360A"/>
<path d="M227.538 28.2377C227.569 28.2377 228.158 27.8847 228.847 27.4531C229.537 27.0214 230.087 26.6425 230.07 26.6111C230.054 26.5797 229.723 26.1328 229.335 25.6179C228.556 24.5839 227.805 23.2169 227.473 22.2254C226.437 19.1349 226.914 15.9258 228.794 13.3355L229.273 12.6758L228.361 11.7644L227.45 10.8529L226.847 11.2822C222.9 14.0952 218.169 13.7715 213.975 10.4017C213.701 10.1816 213.467 10.0118 213.455 10.0241C213.341 10.1381 211.907 12.4822 211.907 12.554C211.908 12.6059 212.158 12.8182 212.464 13.0256C215.855 15.3228 219.734 16.0718 222.732 15.0084L223.451 14.7533L213.452 24.7894L207.129 31.1356L208.973 32.9802L215.336 26.6408L225.348 16.6648L225.045 17.5914C224.258 19.9953 224.58 22.8442 225.965 25.7165C226.359 26.5349 227.421 28.2371 227.538 28.2377Z" fill="#008228"/>
</svg>
