<svg width="40" height="40" viewBox="0 0 40 40" fill="none" xmlns="http://www.w3.org/2000/svg">
<path d="M8.33337 14.1911C8.33337 8.19454 13.5567 3.33337 20 3.33337C26.4434 3.33337 31.6667 8.19454 31.6667 14.1911C31.6667 20.1407 27.943 27.0832 22.1335 29.566C20.7792 30.1447 19.2209 30.1447 17.8665 29.566C12.057 27.0832 8.33337 20.1407 8.33337 14.1911Z" stroke="#008228" stroke-width="3"/>
<path d="M23.3333 15C23.3333 16.841 21.841 18.3333 20 18.3333C18.159 18.3333 16.6666 16.841 16.6666 15C16.6666 13.159 18.159 11.6666 20 11.6666C21.841 11.6666 23.3333 13.159 23.3333 15Z" stroke="#008228" stroke-width="3"/>
<path d="M34.9342 25.8334C36.0432 26.8375 36.6667 27.9694 36.6667 29.1667C36.6667 33.3089 29.2047 36.6667 20 36.6667C10.7953 36.6667 3.33337 33.3089 3.33337 29.1667C3.33337 27.9694 3.95691 26.8375 5.06582 25.8334" stroke="#008228" stroke-width="3" stroke-linecap="round"/>
</svg>
